<?xml version="1.0" encoding="UTF-8"?>
<!DOCTYPE svg PUBLIC "-//W3C//DTD SVG 1.1//EN" "http://www.w3.org/Graphics/SVG/1.1/DTD/svg11.dtd">
<!-- Creator: CorelDRAW 2020 (64-Bit) -->
<svg xmlns="http://www.w3.org/2000/svg" xml:space="preserve" width="279.4mm" height="215.9mm" version="1.1" style="shape-rendering:geometricPrecision; text-rendering:geometricPrecision; image-rendering:optimizeQuality; fill-rule:evenodd; clip-rule:evenodd"
viewBox="0 0 27940 21590"
 xmlns:xlink="http://www.w3.org/1999/xlink"
 xmlns:xodm="http://www.corel.com/coreldraw/odm/2003">
 <defs>
  <style type="text/css">
   <![CDATA[
    .fil0 {fill:#A67C00}
    .fil1 {fill:#A67C00;fill-rule:nonzero}
   ]]>
  </style>
 </defs>
 <g id="Capa_x0020_1">
  <metadata id="CorelCorpID_0Corel-Layer"/>
  <g id="_2345484534912">
   <path class="fil0" d="M23485.67 7119.32c34.63,-59.56 62.83,48.91 78.65,79.83 21.81,42.48 119.74,68.44 140.16,8.95 17.88,-61.2 34.55,-125.13 48.13,-188.54 16.45,-6.5 32.43,-8.63 50.2,-2.5 10.31,4.85 16.85,8.78 23.31,21.19 21.74,41.56 41.2,24.97 75.79,34.07 72.08,18.91 38.52,-111.99 108.17,-156.34 36.02,-22.99 21.66,-107.59 42.34,-140.78 17.55,-29.15 46.11,-94.81 46.11,-94.81 -0.58,0.3 18.36,-5.06 23.58,-8.22 9.87,-5.91 38.4,-14.32 50.45,-18.65 38.62,-9.7 60.29,-64.48 82.25,-100.35 29.55,-45.02 38.77,-8.23 69.1,9.4 17.18,13.47 15.05,27.2 2.05,40.13 14.44,30.18 34.04,42.7 59.6,33.19 38.04,-21.37 0.81,-0.51 15.35,-32.46 15.53,-40.2 18.14,-90.03 29.63,-131.96 9.14,-21.81 25.44,-29.96 45.6,-26.15 0,0 51.26,59.67 81.37,60.19 32.68,0.55 30.18,-23.98 50.38,-27.21 40.83,-6.5 -19.43,227.39 -20.9,247.26 3.45,49.13 4.85,98.22 4.41,147.02 0,0 -29.01,79.71 -50.16,106.99 -22.8,26.84 -49.57,70.68 -70.83,101.42 -3.41,3.67 -28.97,41.27 -28.97,41.27 24.46,107.14 38.7,141.11 -69.21,127.08 -175.99,140.45 -73.51,42.74 -98.92,115.81 -16.08,36.05 -80.34,297.56 -139.45,178.01 -18.55,9.14 -36.8,9.1 -57.17,2.6 -8.19,-2.86 -19.87,-11.16 -26.81,-17.66 -62.6,-76.04 27.17,-114.67 -215.02,-69.28 12.82,31.57 21.63,87.53 24.93,120.98 8.6,66.79 45.46,18.62 108.84,54.78 58.45,39.22 -11.39,34.59 -23.58,74.84 -12.7,41.71 -56.21,39.47 -86.03,49.6 -58.67,35.4 -144.26,142.98 -210.76,193.4 -26.4,26.58 -53.09,52.69 -80.12,78.39 -122.42,31.83 -96.49,35.17 -219.53,-2.94 0,-0.04 -20.75,96.46 -30.85,144.82 -8.26,39.62 -21.55,37.6 -37.82,68.11 -26.99,36.53 -204.74,-23.68 -280.16,-24.13 -2.93,0.11 -11.08,0.11 -13.84,-0.84 -30.4,-3.67 -24.82,-19.75 -11.01,-42.37 2.09,-10.25 20.96,-35.62 25.52,-52.62 6.82,-25.26 13.69,-44.46 19.6,-71.42 16.45,-60.18 -63.59,-56.43 -88.63,-43.14 -21.48,11.35 -45.54,28.82 -8.63,51.33 47.47,29.89 0.11,114.71 -15.24,187.96 -32.94,138.76 -32.46,41.16 -94.22,108.72 -28.27,30.48 -71.01,56.95 -109.16,20.35 -86,-12.42 -171.95,-26.85 -257.84,-43.29 -27.9,20.15 -55.92,40.16 -83.93,60.18 0,0 -45.39,13.36 -85.85,21.73 24.01,0.22 48.03,0.33 71.93,0.55 45.27,-10.28 90.58,-20.34 135.89,-30.25 87.83,4.37 175.66,8.88 263.49,13.91 75.6,-34.77 200.08,-89.37 277.7,-98.84 275.42,-14.1 171.25,-33.78 365.93,133.21 19.57,14.76 111.48,83.98 82.21,-4.22 34.11,-3.23 68.19,-6.24 102.37,-9.07 13.85,1.25 46.6,-4.15 62.35,-5.43 80.56,-99.69 144.82,-82.14 260.29,-71.09 -4.51,56.22 -8.99,112.43 -13.4,168.65 -12.7,126.01 101.97,12.52 102.3,12.99 55.74,-35.28 178.04,-62.82 242.92,-78.35 89.45,-16.64 58.24,60.51 60.99,119.22 10.54,65.84 122.64,131.23 185.61,116.54 69.84,-29.77 140.41,-57.06 211.72,-81.14 29.23,12.59 83.61,40.68 82.32,87.28 -6.2,46.92 29.15,60.4 60.07,98.91 66.5,79.35 120.14,2.94 233.31,47.48 12.15,5.99 22.91,12.01 34.62,19.42 74.94,48.55 166.63,24.57 241.2,69.51 67.86,40.17 199.12,131.23 199.12,131.23 -0.03,-0.03 79.17,117.5 112.55,180.18 17.11,34.4 35.47,63.63 55.95,94.8 51.63,77.4 95.32,140.78 139.79,226.55 67.63,146.07 20.78,103.99 -1.03,137.11 -16.85,27.43 -49.71,-60.92 -49.71,-60.88 -44.95,-20.6 -43.11,30.44 -35.69,70.76 24.12,104.68 -0.45,-0.26 35.06,76.77 43.25,95.07 88.9,188.99 115.52,293.89 7.34,37.09 13.84,94.88 -9,124.88 -26.88,-18.69 -68.52,-37.08 -91.43,-5.43 -22.07,39.91 -8.19,78.94 -22.36,106.19l-153.3 -372.69c-39.25,-44.25 -81.44,-83.87 -126.2,-118.2 -30.25,-41.53 -63.26,-82.32 -92.31,-124.51 -0.22,-0.18 -1.54,-2.31 -1.8,-2.72 -39.36,-61.94 -103.54,-125.64 -155.75,-169.82 -96.9,33.34 -101.67,57.54 -154.95,-85.37 -210.69,-169.67 -118.82,-88.56 -175.33,-90.21 -0.85,-0.11 -2.28,-0.37 -3.05,-0.33 -65.39,4.66 -229.01,72.48 -216.41,-43.88 -30.44,-16.08 -50.9,-47.66 -61.47,-86.87 -7.97,-93.75 103.14,-75.39 -180.21,-234.38 -10.32,41.53 -26.59,74.73 -47.26,108.76 -30.51,56.73 38.74,48.65 81,127.16 34.22,75.23 -33.23,15.79 -67.74,35.61 -36.43,20.93 -80.05,-13.25 -116.18,-26.25 -70.53,-20.38 -243.95,25.67 -326.35,28.27 -41.75,8.63 -83.42,17.85 -124.99,27.47 -162.95,-32.24 -115.25,-9.03 -260.22,-99.32 0,0 -9.54,14.21 -14.9,20.34 -27.18,31.21 -55.71,69.25 -81.26,103.03 -25.59,33.89 -44.65,29.08 -75.09,51 -42.48,22.32 -282.29,-85.77 -373.13,-101.64 -94.25,-13.76 9.92,-65.98 30.44,-92.93 19.79,-22.25 32.94,-39.25 50.52,-64.4 62.65,-78.73 -215.97,-87.94 -133.17,-15.09 44.02,39.73 -22.29,107.8 -54.42,179.44 -62.12,129.25 -41.86,32.35 -118.16,86.98 -34.58,24.53 -82.76,42.78 -116.87,0.44 -88.23,-26.8 -176.47,-53.27 -264.66,-80.04 -32.35,16.52 -64.63,33.19 -96.83,50.01 0,0 -91.28,15.64 -135.78,15.02 -44.25,-3.42 -156.09,-70.87 -202.35,-92.28 -112.84,-52.36 -3.09,-0.25 -94.37,82.99 -81.15,73.95 -364.9,105.34 -467.42,76.92 -70.83,-20.71 -64.73,-56.8 -112.14,-92.75 -41.67,-31.58 -135.3,-115.59 -109.6,-189.17 19.83,-68.37 -0.29,0.26 33.82,-15.75 32.6,-15.24 118.56,-47.88 134.83,-85.12 13.66,-50.3 -1.22,-180.87 -7.64,-239.1 30.92,-33.82 128.18,-37.46 166,-38.67 119.37,-4.18 40.65,-39.14 -14.83,-62.23 11.49,-30 28.97,-75.5 47.66,-114.93 -24.2,1.36 -45.39,0.88 -61.73,-1.69 -1.24,-0.22 -2.46,-0.44 -3.63,-0.66 -278.03,344.89 -1423.74,1579.06 -3314.06,1191.35 -16.59,9.18 -32.42,20.05 -32.42,20.05 0,0 -46.34,11.01 -54.05,-15.94 -1.83,-8.04 -2.53,-15.79 -2.28,-23.39 -28.2,-6.46 -56.54,-13.29 -85.07,-20.48 3.85,7.16 7.71,14.28 11.56,21.4 20.68,14.62 40.95,35.44 54.57,60.22 18.76,27.54 57.72,28.9 83.83,27.02 -84.97,17.7 -204.12,-1.61 -231.66,8.41 -35.17,16.38 -73.84,-22.73 -108.9,-37.16 -41.75,-23.86 6.68,-56.98 26.98,-69.54 8.85,-12.63 17.77,-25.23 26.73,-37.75 27.51,14.51 55.01,28.97 82.55,43.33 8.77,-7.71 17.55,-15.42 26.36,-23.09 -150.91,-39.22 -306.27,-88.75 -466.06,-149.78 -619.51,-236.61 -1193.92,-315.59 -1709.85,-298.4 785.51,305.93 1349.75,941.45 1539.37,1206.84 194.31,271.97 339.97,524.67 281.73,602.36 -81.11,108.14 -242.08,-345.18 -769.31,-897.2 -387.01,-405.22 -1045.11,-739.83 -1367.71,-889.13 -419.36,46.78 -793.95,154.4 -1115.46,284.57l-29.48 12.04c-15.39,47.84 -33.27,94.99 -53.65,141.44 -82.94,188.91 -196.58,353.22 -340.96,493.01 -144.38,139.75 -313.31,250.34 -506.86,331.75 -193.5,81.36 -400.81,122.08 -622,122.08 -218.1,0 -423.91,-40.72 -617.41,-122.08 -193.54,-81.41 -362.44,-192 -506.82,-331.75 -144.38,-139.79 -258.02,-304.1 -340.96,-493.01 -82.91,-188.92 -124.4,-389.32 -124.4,-601.3 0,-211.93 41.49,-412.38 124.4,-601.29 82.94,-188.88 196.58,-353.23 340.96,-493.01 144.38,-139.75 313.28,-250.35 506.82,-331.75 193.5,-81.37 399.31,-122.09 617.41,-122.09 221.19,0 428.5,40.72 622,122.09 193.55,81.4 362.48,192 506.86,331.75 144.38,139.78 258.02,304.13 340.96,493.01 82.91,188.91 124.4,389.36 124.4,601.29 0,67.27 -4.18,133.4 -12.52,198.35 650.32,-249.64 1505.04,-400.11 2499.73,-157.22 55.88,-53.43 420.27,-274.95 485.85,-345.37 65.58,-70.43 126.27,-68.04 94.73,12.11 -31.54,80.16 -443.62,368.98 -443.62,369.02 140.74,39.07 284.19,86.07 430.15,141.81 1342,512.58 2372.97,213.95 3058.57,-198.1 -86.91,26.07 -229.45,60.99 -221.45,3.34 2.13,-65.5 -2.6,-2.57 57.84,-57.94 39.76,-39.8 186.12,-176.39 197.87,-221.66 1.87,-49.79 -74.25,-118.35 -109.75,-150.77 75.6,-112.76 546.14,-374.01 200.44,-229.74 9.66,-56.84 29.41,-155.54 56.29,-203.94 18.21,-28.53 152.49,-98.58 243.84,-144.11 -9.1,-3.16 -17.36,-5.66 -24.45,-7.24 -29.63,-3.67 -68.41,22.18 -93.7,36.02 -21.12,11.53 34.88,21.45 -20.86,11.5 -53.06,-7.46 -89.37,-62.28 -110.08,-106.63 -13.48,-28.75 -42.37,-38.89 -43.88,-77.62 -0.99,-54.09 63.38,-157.19 119.67,-169.83 75.56,-13.21 99.06,37.42 70.05,-18.46 -8.62,-16.42 -57.09,-86.51 -57.61,-98.85 1.33,-15.31 16.2,-49.42 16.2,-49.42 13.84,-9.95 27.42,-20.27 40.61,-31.03 -3.2,-6.28 -6.39,-12.74 -9.81,-18.87 -6.39,-11.57 -44.57,-51.74 -55.74,-63.56 0.74,0.11 -45.34,-14.43 -2.35,-29.26 41.79,-19.5 -35.87,-13.63 65.14,-27.32 37.12,-4.7 108.83,-25.41 139.31,-12.38 59.67,26.44 44.98,-61.5 -15.24,-40.9 -16.56,4.96 -32.93,10.94 -49.2,15.82 -18.62,5.59 -58.57,35.03 -72.11,8.63 -30.99,-52.03 -111.04,-80.63 -89.19,-98.03 17.84,-10.69 14.91,-15.9 38.07,-25.19 31.8,-12.74 93.78,-42.01 93.75,-41.97 -69.03,-40.21 -47.74,-14.03 -84.35,-82.43 6.43,-17.92 12.19,-36.02 17.37,-54.35 -0.03,-1.46 0.7,-10.83 1.03,-11.41 6.28,-10.69 32.09,-89.16 25.7,-99.11 -9.98,-11.23 -31.83,-17.18 -14.46,-35.36 17.44,-18.17 -24.13,-29.52 30.25,-33.81 45.68,-3.64 50.38,25.7 90.25,1.58 22.18,-13.44 83.13,-42.85 83.1,-42.85 -106.04,-77.41 -83.79,-40.17 -161.64,-18.69 -14.76,2.49 -45.56,6.68 -57.72,-6.14 -90.36,40.36 -11.97,-66.05 -4.22,-95.98 8.96,-34.58 49.9,15.72 -22.95,-64 -90.76,2.13 -54.3,-19.35 -9.54,-68.18 0,0 -31.51,-62.61 -42.93,-72.81 -11.01,-12.38 -22.84,-53.02 -22.84,-53.02 6.91,-27.47 13.15,-55.15 18.84,-82.88 -0.4,-21 -56.4,-132.11 -26.25,-138.64 17.14,-3.71 21.07,10.39 49.05,2.53 24.02,-6.72 68.48,-57.35 68.48,-57.32 16.74,-6.57 34.33,-5.91 46.71,8.6 15.42,25.92 20.96,60.07 35.43,86.14 13.62,20.52 -21.48,8.18 13.58,20.67 23.54,5.14 44.36,-4.7 56.95,-24.53 -13.62,-10.46 -12.04,-19.53 2.39,-28.38 27.28,-12.56 38.41,-40.91 66.64,-6.36 20.6,26.96 37.05,68.7 70.65,80.6 20.86,9.36 63.26,32.06 63.23,32.06 0,0 11.01,50.89 18.03,75.75 8,26.29 -30.77,76 -12.38,97.66 39.44,46.53 -48.21,103.81 11.24,114.2 32.93,5.8 32.2,19.09 66.86,4.66 22.84,-7.6 43.55,-3.05 58.16,16.74 -22.21,36.94 -45.75,73.18 -70.53,108.47 -24.46,38.81 58.45,54.31 83.27,48.03 13.99,-3.53 108.1,-43.07 89.63,-1.29 -11.64,28.83 -23.13,55.56 -38.99,82.43 -3.93,10.87 -8.67,23.21 -15.53,32.57 0.77,0.77 -79.97,78.47 16.12,51.52 42.92,-11.38 85.81,-22.91 128.69,-34.55 21.52,75.93 23.02,102.66 -39.47,147.9 -0.62,26.62 -1.91,53.2 -3.93,79.75 1.25,0.29 -76.74,-6.91 -0.03,37.16 113.97,65.54 119.7,19.27 115.91,159.06 -1.06,39.8 -73.1,121.76 -73.1,121.76 3.82,31.43 6.79,63 9.07,94.58 16.34,-15.82 32.53,-31.8 48.61,-47.88 72.37,-47.55 143.31,-97.27 212.67,-149.11 39.62,-66.46 99.88,-178.52 146.51,-233.34 187.48,-201 81.66,-120.99 303.84,-174.49 22.18,-7.12 115.66,-38.96 45.9,-62.01 29.7,-44.62 58.53,-89.78 86.54,-135.49 -14.36,-115.63 30.59,-158.85 97.19,-256.66 129.69,101.3 170.16,159.46 166.23,-8.7 3.08,-56.4 33.52,-165.71 47.33,-224.72 18.83,-139.34 66.9,-68.37 114.45,-55.55 54.71,10.28 138.17,-84.9 146.21,-152.79 -1.47,-78.13 -4.7,-156.2 -9.66,-234.18 0,0 46.45,-88.27 81.4,-74.29 35.99,12.2 54.57,-27.72 85.52,-56.25 70.9,-70.53 12.08,-156.42 62.2,-293.26 29.96,-70.69 -5.73,-150.88 8.41,-222.15 43.14,-221.77 -4.85,-140.55 100.28,-331.19 40.02,-68.78 53.35,-185.06 69.72,-263.79 27.14,-112.57 35.18,-62.64 71.64,-68.51 28.05,-5.44 7.05,62.42 7.23,62.09 23.21,39.18 48.36,12.56 64.59,-16.16 34.96,-74.46 2.2,-0.88 10.94,-66.64 14.18,-108.03 -5.91,-298.41 58.86,-332.23 99.14,100.58 112.95,-29.55 133.21,-49.6 34.96,-34.59 8.16,357.45 9.37,378.49 10.83,62.75 20.96,125.65 30.33,188.62l-85.74 442.96c56.51,104.32 69.07,117.43 -31.69,213.19 -79.57,210.58 -57.94,118.3 -59.26,223.72 -3.23,42.67 22.14,357.12 -72.89,313.06 -18.02,36.24 -45.6,64.84 -84.96,76.85 -84.89,1.65 -9.58,-132.66 -236.02,183.19 27.02,18.39 49.34,50.56 65.02,78.43 30.52,47.8 58.24,-37.79 126.06,-73.11 68.11,-26.14 5.83,32.97 1.87,91.83 1.58,50.42 -42.48,96.17 -68.15,136.26l-218.07 552.35c-116.5,149.41 -94.62,135.6 -247.81,233.86 0,0 0.15,3.71 0.41,10.06 76.52,-22.95 41.74,3.12 163.54,94.22 31.72,21.77 81.99,48.72 45.23,-20.97 30.22,-17.29 60.22,-34.99 90,-53.17 16.78,-105.38 44.1,-113.12 126.27,-144.7 16.53,54.16 32.94,108.35 49.32,162.59 35.58,124.36 62.38,-23.94 62.53,-23.87 15.71,-45.02 71.85,-125.69 98.14,-168.06zm-10628.24 3026.48c598.83,0 1084.32,-465.62 1084.32,-1040.11 0,-574.49 -485.49,-1040.15 -1084.32,-1040.15 -598.84,0 -1084.32,465.66 -1084.32,1040.15 0,574.49 485.48,1040.11 1084.32,1040.11zm8727.83 -306.89c38.41,-5.5 64.88,-10.72 94.99,19.43 23.24,26.69 85.74,5.65 114.93,25.77 26.8,17.88 81.03,52.95 81.03,52.95 0,0 14.43,53.94 18.91,80.23 3.71,39.73 43.62,78.94 64.59,112.5 27.5,46.89 -3.3,41.38 -26.84,64.63 -15.35,11.27 -25.7,3.45 -30.11,-12.56 -25.63,3.49 -40.87,18.91 -42.78,45.05 1.95,41.9 0.15,-0.07 17.04,24.57 23.1,29.48 56.14,53.64 78.25,84.67 10.17,19.31 8.44,37.41 -5.36,54.27 -28.13,5.76 -62.2,14.79 -80.97,37.85 -17.58,26.07 -2.71,36.83 -12.22,53.72 -14.91,26.4 -115.81,-96.27 -135.64,-106.81 -29.59,-8.56 -59.48,-15.97 -89.7,-21.88 0,0 -35.99,-28.68 -44.98,-44.87 -5.91,-14.18 -56.51,-68.41 -56.77,-66.5 -62.05,28.53 -88.82,56.33 -61.32,-26.88 -51.15,-82.54 -21.29,-36.42 -52.32,-32.71 -11.05,1.32 -56.14,18.76 -65.69,24.19 -43.95,7.27 -51.22,1.73 -31.76,-41.93 -14.43,-14.28 -13.33,-42 -11.57,-60.18 12.64,-57.13 51.26,-65.8 0.55,-114.78 -25.77,-2.17 -52.54,-3.19 -82.13,-1.98 -5.47,13.29 -11.35,26.29 -16.86,38.07 -20.96,43.29 20.38,41.57 25.82,90.48 6.09,54.34 -16.64,14.02 -34.34,33.56 -17.66,19.53 -31.24,-1.47 -48.02,-8.81 -20.75,-6.21 -92.16,34.44 -112.87,38.07 -0.08,0 -13.44,11.13 -17.26,12.71 -9.99,9.8 -19.98,19.49 -30.11,29.15 -50.27,-21.74 -35.14,-13.95 -64.07,-68.85 0,0 -17.3,64.74 -26,97.05 -6.35,23.61 -10.87,20.89 -20.23,39.62 -15.17,22.4 -50.67,-59.12 -95.14,-89.19 -25.04,-14.94 7.09,-52.03 13.66,-70.76 5.77,-16.41 11.46,-31.1 16.6,-47.99 19.94,-58.56 -50.71,-77.07 -33.78,-17.51 9.32,33.38 -17.66,100.75 -26.99,136.11 -26.33,94.3 -14.54,23.94 -41.86,59.74 -18.69,24.05 -31.5,18.73 -36.68,-8.55 -26.22,-28.57 -52.29,-57.24 -78.21,-86.11 -13.47,9.48 -27.17,18.69 -40.98,27.65 0,0 -38.44,0.37 -53.27,-4.95 -14.07,-6.98 -54.64,-81.15 -65.55,-97.27 -37.41,-55.22 -0.03,-5.36 -57.86,48.25 -58.9,48.03 -226.26,7.82 -284.16,-30.22 -47.92,-32.46 -35.73,-60.37 -63.38,-94.4 -27.32,-33.64 -100.9,-127.6 -60.55,-169.97 37.23,-45.24 0.33,0.37 40.5,-1.65 34.52,-1.77 118.31,-2.1 142.47,-27.84 23.9,-34.03 45.64,-133.36 55.74,-177.82 31.76,-15.72 88.49,-2.79 119.95,6.06 84.38,27.98 0.11,-53.98 6.83,-48.76 20.24,-29.71 64.52,-96.46 87.65,-118.38 16.23,-13.37 99.54,54.96 99.1,54.56 9.99,-19.72 27.36,-38.15 44.98,-51.11 25.78,-18.36 30.29,-5.58 50.93,4.15 17.11,9.84 54.82,24.38 54.82,24.38 12.08,-3.49 24.09,-7.16 36.02,-11.13 18.8,10.21 37.71,20.31 56.62,30.3 -1.54,2.09 48.98,-62.35 62.35,-62.02 64.73,-0.74 43.65,25.48 65.83,112.36 15.83,52.8 17.48,32.09 16.34,-3.12 11.42,-4.41 22.8,-8.85 34.22,-13.3 9.44,-38.92 10.98,-71.74 59.37,-65.35 -1.5,44.09 -3.04,88.16 -4.51,132.29 -4.04,99.18 23.83,3.78 24.01,3.86 6.1,-14.73 16.38,-28.5 26.04,-41.06 25.26,-13.84 47.62,-26.36 73.5,-39.43 53.25,-26.88 33.2,63.37 33.6,87.61 0.66,38.26 66.02,98.95 111.37,76.74 52.36,-29.08 108.06,-50.67 166.15,-65.21 26.32,12.74 63.08,37.78 54.12,71.27 -14.95,34.33 14.32,47.36 29.23,79.49 15.42,31.73 31.32,35.99 64.73,38.48zm-1122.69 -2108.93c4.7,15.38 9.07,30.8 13.15,46.37 -9.07,7.75 -18.11,15.57 -27.18,23.39 -28.2,-2.79 -56.25,-11.78 -80.37,-26.62 -22,-18.21 -16.08,-38.96 0,-58.53 0,0 49.93,-19.2 63.26,-35.17 11.83,-12.08 58.38,-21.59 58.38,-21.59 9.4,12.63 18.47,25.48 27.29,38.55 -18.07,11.38 -36.28,22.51 -54.53,33.6zm-98.81 133.98c15.46,16.19 30.96,32.39 46.49,48.54 -24.31,10.21 -48.29,21.3 -71.64,33.53 6.17,45.38 12.63,90.73 21.04,135.74 -21.96,10.32 -43.33,21.89 -63.93,34.7 -31.68,42.37 -87.57,134.72 -108.68,42.23 -9.44,-71.53 -43.11,-161.71 -1.14,-218.77 65.84,-86.87 -4.55,-110.7 119.81,-258.27 -15.68,29.85 -20.38,64.47 2.9,92.05 25.41,25.55 43.84,56.18 55.15,90.25zm-673.88 2392.14c47.22,40.47 94.77,80.6 142.65,120.25 33.89,-6.49 67.63,-13.65 101.19,-21.62 7.01,23.83 14.1,47.66 21.3,71.41 30.11,32.28 56.87,69.18 70.31,111.59 20.56,46.45 86.69,67.74 133.44,77.03 -269.4,-25.99 -299.04,-107.95 -437.1,-125.42 -82.68,-5.88 -151.16,-95.84 -216.3,-144.6 -82.14,-73.91 56.98,-65.47 104.39,-63.34 26.8,-8 53.53,-16.45 80.12,-25.3zm480.34 163.62c17.85,14.91 35.76,29.74 53.79,44.5 30.74,-5.18 61.36,-11.13 91.8,-17.81 11.97,15.68 23.98,31.29 36.06,46.85 -23.39,16.86 -49.61,29.09 -78.65,31.03 -33.56,-1.14 -108.62,20.05 -108.62,20.05 -30.91,-2.42 -77.99,-10.94 -84.7,-46.82 1.1,-30.47 14.68,-54.78 34.8,-76.96 18.51,-0.03 37.02,-0.36 55.52,-0.84zm-1902.54 -1450.91c19.68,-16.71 28.38,-8.23 48.69,-4.92 19.53,4.4 59.33,8.62 59.33,8.62 11.9,-4.22 23.8,-8.51 35.66,-12.96 22.06,4.26 44.2,8.34 66.35,12.19 13.58,-14.24 45.16,-48.02 60.65,-53.13 65.51,-10.9 41.42,-7.41 86.25,65.07 31.03,47.4 16.42,-6.43 16.78,-5.51 3.31,-1.58 30.81,-14.94 31.54,-15.86 0.04,0 1.62,-0.77 1.77,-0.85 8.77,-46.08 14.13,-53.2 52.94,-60.8 5.29,30.47 10.51,60.95 15.65,91.43 11.12,70.02 24.85,-4.78 24.85,-4.78 6.58,-20.56 28.17,-54.63 38.96,-74.76 13.22,-26.65 26.15,40.8 29.74,51.52 6.72,19.83 45.64,54.16 53.83,23.02 6.17,-28.31 11.53,-59.11 14.73,-88.34 12.7,-1.95 21.62,6.06 28.2,19.83 9.54,23.24 13.43,16.56 29.44,28.09 17.92,11.75 17.15,-7.79 18.88,-26.04 1.87,-14.54 3.85,-26.25 15.34,-32.05 13.15,-5.33 2.98,-47.04 8.96,-58.02 5.44,-10.46 13.22,-34.7 13.22,-34.66 0,0 20.45,-0.22 30.29,-0.29 16.2,1.5 23.1,-18.03 32.43,-30.81 12.44,-15.57 21.88,3.82 33.7,12.19 6.06,5.22 10.32,11.75 2.43,17.33 7.08,13.26 17.44,22.29 30.11,20.97 18.02,-5.07 0.25,-0.15 6.57,-12.34 6.61,-15.75 7.31,-37.82 12.7,-54.3 5.62,-13.59 23.54,-7.35 23.54,-7.35 0,0 28.57,31.29 42.19,33.78 16.48,3.09 16.12,-7.97 26.44,-7.67 19.97,0.59 -8.85,96.49 -9.33,107.73 2.61,21.92 4.48,43.99 5.62,66.05 0,0 -12.08,33.34 -20.97,43.22 -7.09,6.46 -41.78,55.45 -41.78,55.45 13.21,48.13 24.3,72.84 -27.91,53.53 -75.71,49.13 -31.47,11.97 -41.01,45.53 -4.7,12.08 -8.63,38.63 -13.11,47.4 -8.59,28.53 -21.37,66.72 -42.01,24.02 -13.44,4.15 -25.52,-6.24 -34.99,-17.81 -28.57,-47.92 10.32,-54.49 -90.25,-60.66 5.65,23.24 8.41,40.9 10.13,65.29 1.8,34.29 24.53,17.95 45.64,40.79 25.04,27.02 -4.73,16.05 -10.39,36.02 -5.69,20.08 -24.05,14.17 -37.16,16.12 -16.52,4.29 -69.84,64.29 -93.89,77.58 -12.11,11.09 -24.41,21.89 -36.82,32.39 -44.32,2.68 -41.94,9.29 -80.2,-16.96 -3.48,-2.21 -8.66,-6.8 -12.19,-9.55 0,0 -10.87,48.58 -16.34,72.88 -4.44,19.94 -9.1,16.53 -16.89,31.62 -12.3,17.11 -71.67,-34.11 -107.69,-44.61 -26.29,-6.39 -0.04,-36.02 4.33,-51.01 3.71,-12.55 7.27,-22.61 10.5,-35.87 12.63,-43.47 -60.43,-45.24 -35.87,-6.64 13.33,21.51 -3.38,68.55 -8.15,98.07 -12.71,70.24 -10.32,17.92 -30.59,47.29 -11.2,15.86 -23.75,20.53 -33.67,-0.84 -26.43,-15.9 -52.72,-32.17 -78.9,-48.76 -9.55,8.26 -19.13,16.48 -28.72,24.63 0,0 -28.86,5.69 -41.97,4.01 -12,-2.79 -52.91,-46.38 -65.1,-57.03 -36.79,-31.94 -1.1,-4.84 -32.05,42.04 -28.97,38.71 -138.36,45.79 -178.71,31.84 -31.91,-11.64 -30.62,-32.61 -51.96,-49.28 -20.81,-16.3 -75.85,-60.73 -64.8,-98.25 8.96,-38.67 0.14,-0.11 19.86,-10.8 17.26,-9.4 63.05,-29.67 71.01,-50.67 6.72,-28.64 -1.57,-98.22 -5.17,-130.68 14.76,-17.99 59.22,-20.23 78.06,-20.27 65.39,2.83 -13.77,-37.23 -6.02,-34.22 7.97,-25.15 24.34,-77.44 36.75,-96.38 15.5,-9.51 73.18,12.88 91.87,20.19 5.29,-17.44 16.97,-31.72 28.68,-42z"/>
   <path class="fil1" d="M4697.48 14308.82l-1027.48 -2372.91 -1032.11 2372.91 -552.9 0 1299.34 -2994.91 566.71 0 1299.34 2994.91 -552.9 0zm3676.83 -2994.91l506.81 0 0 2994.91 -506.81 0 0 -1631.09 -889.28 1336.2 -423.91 0 -889.27 -1336.2 0 1631.09 -506.82 0 0 -2994.91 506.82 0 0 451.56 1101.25 1654.11 1101.21 -1654.11 0 -451.56zm3533.99 2994.91l-1027.51 -2372.91 -1032.11 2372.91 -552.9 0 1299.34 -2994.91 566.74 0 1299.34 2994.91 -552.9 0zm6118.8 96.75c-6.17,6.13 -41.49,32.27 -105.97,78.32 -64.51,46.08 -149.73,96.79 -255.74,152.08 -105.97,55.3 -230.37,105.2 -373.2,149.7 -142.83,44.58 -294.11,66.83 -453.83,66.83 -267.24,0 -500.73,-26.88 -700.36,-80.63 -199.64,-53.76 -377.06,-122.9 -532.16,-207.35 -155.13,-84.45 -291.06,-177.38 -407.75,-278.73 -116.76,-101.37 -225.82,-201.21 -327.16,-299.51 -82.94,-76.77 -162.03,-149.77 -237.27,-218.87 -75.27,-69.1 -155.13,-128.99 -239.62,-179.66 -84.45,-50.71 -175.84,-90.66 -274.14,-119.81 -98.33,-29.16 -210.39,-43.77 -336.33,-43.77l-400.89 0 0 884.65 -506.82 0 0 -2994.91 1313.15 0c150.5,0 291.06,27.61 421.59,82.91 130.53,55.3 244.98,130.57 343.28,225.82 98.29,95.21 175.84,207.34 232.68,336.3 56.8,129.02 85.22,265.73 85.22,410.06 0,184.33 -43.76,352.5 -131.34,504.55 -87.53,152.08 -203.45,275.71 -347.83,370.92 79.86,58.35 154.33,119.04 223.43,181.98 69.11,62.97 137.47,128.25 205.07,195.85 95.21,92.12 192.73,181.97 292.57,269.51 99.84,87.57 211.94,165.12 336.37,232.68 124.41,67.6 266.43,121.35 426.15,161.3 159.76,39.92 347.14,59.85 562.16,59.85 113.64,0 222.69,-16.89 327.15,-50.63 104.39,-33.82 196.56,-71.45 276.45,-112.87 79.87,-41.49 143.57,-79.9 191.19,-115.22 47.63,-35.33 71.38,-52.99 71.38,-52.99l322.57 391.64zm-3838.09 -1488.26c79.86,0 154.36,-14.57 223.5,-43.76 69.1,-29.16 129.76,-68.34 181.97,-117.5 52.22,-49.13 93.67,-107.48 124.4,-175.04 30.7,-67.59 46.05,-138.24 46.05,-212.01 0,-76.77 -15.35,-148.15 -46.05,-214.21 -30.73,-66.05 -72.18,-123.63 -124.4,-172.79 -52.21,-49.13 -112.87,-88.31 -181.97,-117.47 -69.14,-29.22 -143.64,-43.8 -223.5,-43.8l-806.33 0 0 1096.58 806.33 0zm2515.73 -829.35l-580.59 1677.17 -539.05 0 852.41 -2451.22 534.46 0 852.37 2451.22 -534.46 0 -585.14 -1677.17zm3838.1 -774.05l506.78 0 0 2994.91 -506.78 0 0 -783.31 -1594.23 -1598.81 0 2382.12 -506.85 0 0 -2994.91 612.82 0 1488.26 1497.44 0 -1497.44zm3326.65 73.73c-116.73,49.13 -244.21,99.07 -382.46,149.74 -138.2,50.71 -299.47,97.52 -483.79,140.52l0 2630.92 -506.82 0 0 -2543.35c-138.21,18.4 -285.67,32.24 -442.34,41.45 -156.64,9.18 -330.21,13.81 -520.67,13.81l0 -506.82c294.92,0 551.43,-11.53 769.5,-34.55 218.07,-23.02 410.07,-53.76 575.93,-92.16 165.89,-38.41 311.8,-81.41 437.75,-128.99 125.9,-47.63 245.71,-94.48 359.36,-140.56 82.94,-33.78 165.85,-66.05 248.83,-96.75 82.91,-30.73 168.91,-58.35 257.98,-82.91 89.12,-24.6 184.33,-44.58 285.67,-59.92 101.38,-15.39 211.97,-23.06 331.75,-23.06 211.93,0 399.31,33.81 562.15,101.38 162.77,67.59 299.47,142.83 410.07,225.77 110.56,82.91 194.27,159.76 251.11,230.41 56.84,70.65 88.31,109.02 94.44,115.15l-419.32 281.07c-3.05,-3.08 -24.56,-28.42 -64.51,-76 -39.88,-47.63 -97.49,-99.07 -172.72,-154.36 -75.31,-55.3 -168.17,-105.2 -278.77,-149.78 -110.59,-44.5 -238.08,-66.79 -382.45,-66.79 -95.21,0 -182.75,6.13 -262.65,18.43 -79.86,12.27 -156.63,28.42 -230.36,48.36 -73.7,20.01 -145.89,43.77 -216.53,71.46 -70.65,27.61 -144.38,56.84 -221.15,87.53zm903.04 474.58c150.51,0 293.34,28.38 428.5,85.22 135.16,56.84 251.88,133.62 350.18,230.37 98.33,96.79 176.65,210.43 234.99,340.97 58.38,130.53 87.54,269.54 87.54,417l0 299.47c0,147.43 -29.16,286.44 -87.54,417.01 -58.34,130.53 -136.66,244.18 -234.99,340.93 -98.3,96.75 -215.02,173.53 -350.18,230.37 -135.16,56.84 -277.99,85.26 -428.5,85.26 -153.56,0 -297.16,-28.42 -430.81,-85.26 -133.62,-56.84 -249.54,-133.62 -347.87,-230.37 -98.29,-96.75 -176.61,-210.4 -234.96,-340.93 -58.38,-130.57 -87.53,-269.58 -87.53,-417.01l0 -299.47c0,-147.46 29.15,-286.47 87.53,-417 58.35,-130.54 136.67,-244.18 234.96,-340.97 98.33,-96.75 214.25,-173.53 347.87,-230.37 133.65,-56.84 277.25,-85.22 430.81,-85.22zm594.39 1073.56c0,-76.81 -15.38,-149.77 -46.08,-218.87 -30.73,-69.11 -72.96,-129.76 -126.68,-182.01 -53.79,-52.22 -116.76,-92.9 -188.91,-122.09 -72.19,-29.19 -149.77,-43.81 -232.72,-43.81 -82.91,0 -160.5,14.62 -232.68,43.81 -72.15,29.19 -135.12,69.87 -188.92,122.09 -53.75,52.25 -96.71,112.9 -128.99,182.01 -32.24,69.1 -48.39,142.06 -48.39,218.87l0 299.47c0,79.87 16.15,153.56 48.39,221.16 32.28,67.56 75.24,127.48 128.99,179.7 53.8,52.24 116.77,92.93 188.92,122.08 72.18,29.19 149.77,43.77 232.68,43.77 82.95,0 160.53,-14.58 232.72,-43.77 72.15,-29.15 135.12,-69.84 188.91,-122.08 53.72,-52.22 95.95,-112.14 126.68,-179.7 30.7,-67.6 46.08,-141.29 46.08,-221.16l0 -299.47z"/>
   <path class="fil1" d="M9682.83 10655.01c-138.21,0 -268.01,-26.11 -389.33,-78.36 -121.35,-52.21 -228.09,-122.86 -320.25,-211.94 -92.13,-89.04 -164.31,-192.73 -216.56,-311 -52.18,-118.27 -78.32,-244.94 -78.32,-380.1l506.85 0c0,64.51 13.04,125.94 39.18,184.29 26.07,58.34 62.16,109.05 108.25,152.05 46.08,43.03 99.06,76.77 158.98,101.34 59.86,24.6 123.63,36.9 191.2,36.9 67.59,0 132.07,-12.3 193.54,-36.9 61.43,-24.57 115.14,-58.31 161.22,-101.34 46.09,-43 82.18,-93.71 108.29,-152.05 26.14,-58.35 39.17,-119.78 39.17,-184.29l0 -1557.36 -1119.64 0 0 -506.82 1626.46 0 0 2064.18c0,135.16 -26.1,261.83 -78.35,380.1 -52.18,118.27 -124.37,221.96 -216.53,311 -92.16,89.08 -199.67,159.73 -322.49,211.94 -122.9,52.25 -253.43,78.36 -391.67,78.36z"/>
   <path class="fil1" d="M6531.28 10655.01c-218.14,0 -423.94,-40.72 -617.41,-122.09 -193.54,-81.4 -362.48,-192 -506.86,-331.75 -144.37,-139.78 -258.01,-304.1 -340.96,-493.01 -82.91,-188.91 -124.4,-389.32 -124.4,-601.29 0,-211.94 41.49,-412.38 124.4,-601.3 82.95,-188.88 196.59,-353.23 340.96,-493.01 144.38,-139.75 313.32,-250.34 506.86,-331.75 193.47,-81.36 399.27,-122.09 617.41,-122.09 221.16,0 428.47,40.73 622.01,122.09 193.54,81.41 362.44,192 506.81,331.75 144.38,139.78 258.02,304.13 340.97,493.01 82.91,188.92 124.4,389.36 124.4,601.3 0,211.97 -41.49,412.38 -124.4,601.29 -82.95,188.91 -196.59,353.23 -340.97,493.01 -144.37,139.75 -313.27,250.35 -506.81,331.75 -193.54,81.37 -400.85,122.09 -622.01,122.09zm0 -2589.47c-147.46,0 -287.24,26.88 -419.28,80.67 -132.11,53.76 -247.3,128.22 -345.63,223.47 -98.25,95.21 -175.84,205.8 -232.64,331.75 -56.8,125.94 -85.22,261.1 -85.22,405.44 0,144.37 28.42,279.53 85.22,405.47 56.8,125.91 134.39,236.5 232.64,331.71 98.33,95.25 213.52,169.71 345.63,223.47 132.04,53.79 271.82,80.67 419.28,80.67 150.51,0 291.8,-26.88 423.88,-80.67 132.07,-53.76 247.29,-128.22 345.55,-223.47 98.29,-95.21 175.88,-205.8 232.68,-331.71 56.84,-125.94 85.26,-261.1 85.26,-405.47 0,-144.34 -28.42,-279.5 -85.26,-405.44 -56.8,-125.95 -134.39,-236.54 -232.68,-331.75 -98.26,-95.25 -213.48,-169.71 -345.55,-223.47 -132.08,-53.79 -273.37,-80.67 -423.88,-80.67z"/>
   <path class="fil1" d="M3448.84 9715.1c42.96,128.95 121.32,233.42 234.96,313.28 113.68,79.86 244.21,119.81 391.67,119.81l253.43 0 0 506.82 -253.43 0c-144.37,0 -281.07,-23.83 -410.1,-71.42 -128.99,-47.62 -244.21,-113.64 -345.55,-198.13 -101.38,-84.45 -186.64,-183.52 -255.74,-297.2 -69.11,-113.64 -115.96,-236.5 -140.52,-368.57l-331.75 0 0 884.65 -506.82 0 0 -2994.91 1313.15 0c150.5,0 291.06,27.61 421.55,82.91 130.57,55.3 245.02,130.57 343.32,225.78 98.26,95.25 175.84,207.35 232.68,336.34 56.8,129.02 85.22,265.73 85.22,410.06 0,141.33 -26.87,274.95 -80.63,400.89 -53.76,125.94 -127.48,235.73 -221.15,329.44 -93.71,93.7 -203.53,168.93 -329.47,225.77 -125.91,56.84 -259.53,88.27 -400.82,94.48zm-857.03 -506.86l806.33 0c79.86,0 154.36,-14.61 223.5,-43.76 69.1,-29.19 129.76,-67.6 181.97,-116.77 52.22,-49.09 93.67,-107.47 124.4,-174.3 30.7,-67.56 46.05,-137.43 46.05,-211.16 0,-76.78 -15.35,-147.46 -46.05,-213.52 -30.73,-65.25 -72.18,-122.82 -124.4,-171.98 -52.21,-49.17 -112.87,-87.54 -181.97,-116.73 -69.14,-29.19 -143.64,-43.77 -223.5,-43.77l-806.33 0 0 1091.99z"/>
  </g>
 </g>
</svg>
